inDegrees=yes
name=ik_S41_A02_T01
DataType=double
version=3
OpenSimVersion=4.3-2021-08-27-4bc7ad9
endheader
time	pelvis_tilt	pelvis_list	pelvis_rotation	pelvis_tx	pelvis_ty	pelvis_tz	hip_flexion_r	hip_adduction_r	hip_rotation_r	knee_angle_r	knee_angle_r_beta	ankle_angle_r	subtalar_angle_r	mtp_angle_r	hip_flexion_l	hip_adduction_l	hip_rotation_l	knee_angle_l	knee_angle_l_beta	ankle_angle_l	subtalar_angle_l	mtp_angle_l	lumbar_extension	lumbar_bending	lumbar_rotation	arm_flex_r	arm_add_r	arm_rot_r	elbow_flex_r	pro_sup_r	wrist_flex_r	wrist_dev_r	arm_flex_l	arm_add_l	arm_rot_l	elbow_flex_l	pro_sup_l	wrist_flex_l	wrist_dev_l
30.61999999999944	-0.4033680759529947	-4.765345989267509	95.6245094417676	0	0.9399999999999999	0	2.548977571871025	0.6164637449737995	-1.188102053936827	5.237112318539842	0.09140485325527432	0	0	0	23.2382165445069	3.944293330155588	-15.10828396349528	9.014938802180266	0.1573403639638394	0	0	0	0	0	0	41.59756523895115	-41.59756523895113	4.945699747338854	84.26497646284568	85.05430052487115	0	0	41.59756523895115	-41.59756523895113	4.945699747338854	84.26497646284568	85.0543005248615	0	0
30.63999999999944	-0.4351278557661225	-4.581828878984281	95.80641061956331	0	0.9399999999999999	0	3.011888076899855	0.510024026068532	-2.014779751538395	5.331859755269095	0.09305850798402478	0	0	0	23.13569040886278	3.529169228453977	-14.17176391620985	12.56085258486068	0.2192282344634593	0	0	0	0	0	0	41.5995794054845	-41.59957940548448	4.945764372111918	84.26585129544861	85.05423590010082	0	0	41.5995794054845	-41.59957940548448	4.945764372111918	84.26585129544861	85.05423590009117	0	0
30.65999999999944	-0.5037227480430255	-4.270267696771667	96.03127243625362	0	0.9399999999999999	0	3.711349041221353	0.7632569226525987	-3.225523881952288	5.033572924005798	0.0878524206631395	0	0	0	22.81174498073735	3.151670200953394	-12.77151050037355	14.46083581946778	0.2523891976400451	0	0	0	0	0	0	41.60108517278481	-41.60108517278479	4.94581271301757	84.26650569157364	85.05418755919719	0	0	41.60108517278481	-41.60108517278479	4.94581271301757	84.26650569157364	85.05418755918754	0	0
30.67999999999943	-0.5148094272414042	-4.104920594258183	96.24466249907566	0	0.9399999999999999	0	4.144496746784069	0.7558542363933325	-3.793833011094215	2.962816022833286	0.05171089472928433	0	0	0	22.28065615390222	2.617897803473943	-11.42882319181186	20.02788373217014	0.349552513332979	0	0	0	0	0	0	41.60262993761604	-41.60262993761602	4.945862121128854	84.2671745340765	85.054138151088	0	0	41.60262993761604	-41.60262993761602	4.945862121128854	84.2671745340765	85.05413815107833	0	0
30.69999999999943	-0.5114171878897305	-3.981231614217775	96.4552294602063	0	0.9399999999999999	0	4.863758672723953	0.7482928177602691	-3.821262730899231	2.51487632208176	0.04389287210077209	0	0	0	20.81195451942181	2.25133888832877	-10.38212064237061	20.94037864613411	0.3654785539893528	0	0	0	0	0	0	41.60399701109301	-41.60399701109299	4.945905781776514	84.26776557240953	85.0540944904421	0	0	41.60399701109301	-41.60399701109299	4.945905781776514	84.26776557240953	85.05409449043248	0	0
30.71999999999943	-0.4629412893387694	-3.723199580903678	96.54128954198963	0	0.9399999999999999	0	4.675401591121379	0.8663485848454776	-3.759253302580644	1.544786932951277	0.02696161822178466	0	0	0	20.39507121115565	1.709505380771664	-10.0565393088044	27.39713330863272	0.4781701818434487	0	0	0	0	0	0	41.60580191419206	-41.60580191419204	4.945962993989903	84.26854005847002	85.05403727823105	0	0	41.60580191419206	-41.60580191419204	4.945962993989903	84.26854005847002	85.05403727822144	0	0
30.73999999999943	-0.3920041853169276	-3.391465775598899	96.39162223039961	0	0.9399999999999999	0	5.472509816859161	1.080478702617345	-2.657531089877225	1.49560486026794	0.02610322912050527	0	0	0	17.87119652426752	0.6441054015194215	-9.944308204888909	27.71615975712077	0.4837382437705093	0	0	0	0	0	0	41.60662622441624	-41.60662622441622	4.945989272089577	84.26889578742654	85.05401100013248	0	0	41.60662622441624	-41.60662622441622	4.945989272089577	84.26889578742654	85.05401100012288	0	0
30.75999999999943	-0.2849506128771953	-2.993165674367417	96.14854981250882	0	0.9399999999999999	0	6.297285530267239	1.262956937943877	-1.412315792467007	1.531778715941774	0.02673458200515492	0	0	0	17.38886296059259	0.0979755976405027	-9.934596141196165	32.30472674967786	0.5638238457389647	0	0	0	0	0	0	41.60814601766879	-41.60814601766877	4.946037686738716	84.26955118070478	85.05396258548532	0	0	41.60814601766879	-41.60814601766877	4.946037686738716	84.26955118070478	85.05396258547573	0	0
30.77999999999943	-0.1268095468826033	-2.510473743630469	96.1014098837513	0	0.9399999999999999	0	6.961094530912533	1.334708597261423	-1.47814005003239	2.289206055143257	0.03995418291884071	0	0	0	15.36409344366209	-1.267708564691475	-9.184328475400656	40.37218857910607	0.704627616941452	0	0	0	0	0	0	41.6103380338468	-41.61033803384679	4.946107426271591	84.2704952504216	85.0538928459553	0	0	41.6103380338468	-41.61033803384679	4.946107426271591	84.2704952504216	85.05389284594571	0	0
30.79999999999943	-0.04550940524705121	-2.320925995290968	96.08173296655625	0	0.9399999999999999	0	7.804874792422394	1.328821662284198	-2.248948755488197	2.834859511403873	0.04947763230547533	0	0	0	13.48286842107137	-2.247198070964694	-8.642934694827902	43.38966639592016	0.7572925399507483	0	0	0	0	0	0	41.61187502099832	-41.6118750209983	4.94615651659023	84.27115979047387	85.0538437556387	0	0	41.61187502099832	-41.6118750209983	4.94615651659023	84.27115979047387	85.05384375562907	0	0
30.81999999999943	0.1282589218772894	-2.059679528546802	96.02371813964024	0	0.9399999999999999	0	8.792339242946992	1.426604244778227	-2.624916847631668	3.478255065379571	0.06070700311504414	0	0	0	11.37530751291959	-3.407756534021014	-8.231499692329333	45.63225798846918	0.7964331470182719	0	0	0	0	0	0	41.61322421805357	-41.61322421805356	4.946199511909448	84.27174182170123	85.05380076032138	0	0	41.61322421805357	-41.61322421805356	4.946199511909448	84.27174182170123	85.05380076031176	0	0
30.83999999999943	0.2865952858046786	-1.825002072171789	95.99470735239927	0	0.9399999999999999	0	9.923887252945654	1.437725951733259	-2.659755570964895	4.257285313508796	0.07430364591752751	0	0	0	9.17607734285844	-4.335360631084469	-8.183771394908334	45.51703594214303	0.794422142938995	0	0	0	0	0	0	41.61527813588887	-41.61527813588886	4.946264839957545	84.27262617254416	85.0537354322759	0	0	41.61527813588887	-41.61527813588886	4.946264839957545	84.27262617254416	85.05373543226632	0	0
30.85999999999943	0.473814774076982	-1.571391081431955	96.01386754152762	0	0.9399999999999999	0	11.12872064376242	1.500319552863025	-2.607694551145926	5.09282819630548	0.08888662026393475	0	0	0	6.796959650482337	-5.191413683254006	-8.259869608122326	46.26907325193351	0.8075476700926796	0	0	0	0	0	0	41.6171465497154	-41.61714654971538	4.946324259857716	84.27343054423629	85.05367601237816	0	0	41.6171465497154	-41.61714654971538	4.946324259857716	84.27343054423629	85.05367601236858	0	0
30.87999999999943	0.6192281978788428	-1.385808727056093	96.00661277181969	0	0.9399999999999999	0	12.57160000071945	1.761039856591259	-1.864211100146433	5.882478492308591	0.1026686178685368	0	0	0	4.419441922720871	-5.828841410798894	-8.45964101437008	46.02399360319382	0.8032702232925407	0	0	0	0	0	0	41.63435438077347	-41.63435438077344	4.946789028498443	84.27972196557693	85.05321124375615	0	0	41.63435438077347	-41.63435438077344	4.946789028498443	84.27972196557693	85.05321124374672	0	0
30.89999999999943	0.8455160467667989	-1.183697865664342	96.43773743370933	0	0.9399999999999999	0	14.23237242718495	2.302227519244948	-0.5293205059000422	6.455911854988947	0.1126769180880918	0	0	0	2.141725338167551	-6.41897095276121	-8.13295063811038	44.76536053832859	0.7813029322361751	0	0	0	0	0	0	41.64483313397617	-41.64483313397615	4.947074600303941	84.28358766506197	85.05292567196214	0	0	41.64483313397617	-41.64483313397615	4.947074600303941	84.28358766506197	85.05292567195282	0	0
30.91999999999943	0.886977415573198	-1.304380704379878	96.82304824805345	0	0.9399999999999999	0	17.76763970807415	1.825369197364966	2.81381944154335	8.067145244036137	0.1407982457450321	0	0	0	0.1684946715381143	-6.521004558747213	-7.523428990584145	42.73432053737354	0.7458545969798007	0	0	0	0	0	0	41.66077629340948	-41.66077629340946	4.947509380686899	84.28947315647231	85.05249089159678	0	0	41.66077629340948	-41.66077629340946	4.947509380686899	84.28947315647231	85.05249089158758	0	0
30.93999999999943	0.9249085935073357	-1.35740471975478	97.03765342270178	0	0.9399999999999999	0	18.43609357006666	1.473046180841497	1.558922273147466	8.293240916892618	0.1447443596608896	0	0	0	-1.888648683492202	-6.217555661257446	-6.785344884048706	39.220380484821	0.6845247733450563	0	0	0	0	0	0	41.66148537982063	-41.6614853798206	4.947531813791153	84.28977683436254	85.05246845849345	0	0	41.66148537982063	-41.6614853798206	4.947531813791153	84.28977683436254	85.0524684584842	0	0
30.95999999999943	0.9903588574584609	-1.510323068142577	97.42238597070266	0	0.9399999999999999	0	18.3968476457507	2.054720505860335	-1.880071966232476	5.263694188497141	0.09186879440736613	0	0	0	-3.76569104656787	-5.940054130768893	-6.004257491328469	36.40814655419193	0.6354420319192773	0	0	0	0	0	0	41.65817767156906	-41.65817767156904	4.947451543640065	84.28869026578181	85.05254872864138	0	0	41.65817767156906	-41.65817767156904	4.947451543640065	84.28869026578181	85.05254872863212	0	0
30.97999999999943	1.044720698317023	-1.786088238757704	97.6087696548588	0	0.9399999999999999	0	18.27275971011714	2.645796437298905	-5.612004048686113	3.478037023070536	0.06070319755884283	0	0	0	-5.329683534765329	-5.199535973504757	-5.623309304368677	30.03432553842383	0.5241978692613145	0	0	0	0	0	0	41.65961818271195	-41.65961818271192	4.947499161370028	84.28933487305666	85.0525011109134	0	0	41.65961818271195	-41.65961818271192	4.947499161370028	84.28933487305666	85.05250111090417	0	0
30.99999999999943	1.046206788233815	-2.246081587446714	97.37724641960973	0	0.9399999999999999	0	18.69964165190825	2.680287224658005	-5.367541930494028	1.355971702947057	0.02366617078030065	0	0	0	-6.575627684794921	-4.564313830503547	-6.929658572106844	26.98517898963332	0.4709802226090982	0	0	0	0	0	0	41.66116093270582	-41.6611609327058	4.947547851928995	84.28999399892119	85.05245242035642	0	0	41.66116093270582	-41.6611609327058	4.947547851928995	84.28999399892119	85.05245242034724	0	0
31.01999999999943	0.9062304431150249	-2.695242861504904	96.87086841400792	0	0.9399999999999999	0	19.31548400193715	2.389040102563153	-5.05713868408536	0.4986180853083096	0.008702527298619969	0	0	0	-6.50471336649803	-3.707783098668236	-5.809384465723844	23.04380450925554	0.4021902608724254	0	0	0	0	0	0	41.66182724396941	-41.66182724396938	4.94756891420528	84.29027911978545	85.05243135808105	0	0	41.66182724396941	-41.66182724396938	4.94756891420528	84.29027911978545	85.05243135807187	0	0
31.03999999999943	0.6203173627520876	-3.419905786906626	96.80649789381363	0	0.9399999999999999	0	20.49246405480413	1.742113211385095	-3.799331918961413	-1.547185740384607	-0.0270034853096176	0	0	0	-5.819991037446652	-3.044531916343668	-6.322164052453009	18.93650831497615	0.3305044189276172	0	0	0	0	0	0	41.66359754835425	-41.66359754835423	4.947624794639776	84.29103557517793	85.05237547764895	0	0	41.66359754835425	-41.66359754835423	4.947624794639776	84.29103557517793	85.05237547763977	0	0
31.05999999999943	0.4356226709964219	-4.011349977996701	96.80776569989922	0	0.9399999999999999	0	21.41453153014076	1.800955653461391	-4.125602561794297	-3.486156753384906	-0.06084491358720259	0	0	0	-5.551555897677884	-2.171709695603042	-2.476994236583444	18.12970953237579	0.316423123770159	0	0	0	0	0	0	41.6646247501355	-41.66462475013548	4.947660812247508	84.29152315428148	85.05233946004273	0	0	41.6646247501355	-41.66462475013548	4.947660812247508	84.29152315428148	85.05233946003351	0	0
31.07999999999943	0.1663394413551094	-5.108224927571878	96.85844933504293	0	0.9399999999999999	0	21.92141821037156	1.863612661806127	-8.241175536350337	-5.407915059935585	-0.09438592346406244	0	0	0	-4.453599769159292	-0.8982555901887378	-2.154791143247308	13.57731798124576	0.2369689023629682	0	0	0	0	0	0	41.66562845563283	-41.66562845563281	4.947697117847214	84.29201463366938	85.05230315444456	0	0	41.66562845563283	-41.66562845563281	4.947697117847214	84.29201463366938	85.05230315443535	0	0
